<?xml version="1.0" encoding="utf-8"?>
<!-- Svg Vector Icons : http://www.onlinewebfonts.com/icon -->
<!DOCTYPE svg PUBLIC "-//W3C//DTD SVG 1.1//EN" "http://www.w3.org/Graphics/SVG/1.1/DTD/svg11.dtd">
<svg version="1.1" xmlns="http://www.w3.org/2000/svg" xmlns:xlink="http://www.w3.org/1999/xlink" x="0px" y="0px" viewBox="0 0 1000 1000" enable-background="new 0 0 1000 1000" xml:space="preserve">
<metadata> Svg Vector Icons : http://www.onlinewebfonts.com/icon </metadata>
<g><g transform="translate(0.000000,511.000000) scale(0.100000,-0.100000)"><path d="M4856.7,4966.4c-42.3-28.2-80.7-80.7-102.8-137.1c-387.1-996.1-578.7-1377.2-1439.7-2865.3C2304,221.8,2023.7-373.1,1862.4-1101c-46.4-207.7-60.5-649.3-32.3-905.4c173.4-1510.3,1191.7-2556.8,2677.8-2752.4c895.3-117,1818.8,98.8,2458,574.7c657.4,492,1072.7,1219.9,1187.7,2089c78.6,586.8,10.1,1064.7-242,1703.9c-246,619-439.6,984-1401.4,2639.5c-604.9,1040.5-941.7,1707.9-1185.6,2361.2c-100.8,270.2-125,316.6-183.5,354.9C5052.3,5024.9,4943.4,5024.9,4856.7,4966.4z M5088.6,3821.1c213.8-479.9,534.4-1078.8,1139.3-2117.2C7078.8,241.9,7326.8-242,7516.4-812.6c110.9-326.7,149.2-550.5,147.2-840.8c-2-451.7-92.8-836.8-286.3-1230c-336.8-681.5-905.4-1125.2-1683.7-1310.7c-516.2-125-1143.3-98.8-1639.3,68.6C3415-3911.9,2919-3488.4,2626.6-2907.7c-284.3,562.6-371,1232-231.9,1810.7c141.2,598.9,417.4,1165.5,1353,2780.6c639.2,1105,1004.2,1784.5,1191.7,2222.1c26.2,62.5,54.4,108.9,60.5,100.8C5008,3998.5,5046.3,3915.8,5088.6,3821.1z"/><path d="M3068.2-810.6c-84.7-189.6-179.5-477.9-207.7-633.2c-52.4-282.3-16.1-693.6,84.7-996.1c312.5-937.6,1276.4-1439.7,2353.1-1226c171.4,34.3,181.5,62.5,26.2,64.5c-36.3,2-137.1,16.1-221.8,34.3c-490,96.8-893.3,298.4-1221.9,613c-403.3,383.1-659.4,889.2-748.1,1482.1c-32.3,219.8-38.3,526.3-10.1,685.6c8.1,56.5,14.1,102.8,10.1,106.9C3130.7-677.5,3100.4-736,3068.2-810.6z"/></g></g>
</svg>