<?xml version="1.0" encoding="UTF-8" standalone="no"?>
<!-- Created with Inkscape (http://www.inkscape.org/) -->

<svg
   xmlns:dc="http://purl.org/dc/elements/1.1/"
   xmlns:cc="http://creativecommons.org/ns#"
   xmlns:rdf="http://www.w3.org/1999/02/22-rdf-syntax-ns#"
   xmlns:svg="http://www.w3.org/2000/svg"
   xmlns="http://www.w3.org/2000/svg"
   xmlns:sodipodi="http://sodipodi.sourceforge.net/DTD/sodipodi-0.dtd"
   xmlns:inkscape="http://www.inkscape.org/namespaces/inkscape"
   id="svg3189"
   inkscape:version="0.91 r13725"
   viewBox="0 0 269.96301 304.80905"
   version="1.1"
   sodipodi:docname="spring-bunny-front-orange.svg">
  <defs
     id="defs28" />
  <sodipodi:namedview
     id="namedview3193"
     bordercolor="#666666"
     inkscape:pageshadow="2"
     inkscape:window-y="24"
     pagecolor="#ffffff"
     inkscape:zoom="1.9091334"
     inkscape:window-width="1855"
     inkscape:window-maximized="1"
     inkscape:window-x="65"
     showgrid="false"
     borderopacity="1.0"
     inkscape:current-layer="g4994"
     inkscape:cx="151.67089"
     inkscape:cy="209.57918"
     units="in"
     inkscape:window-height="1056"
     inkscape:pageopacity="0.0"
     inkscape:document-units="in" />
  <g
     id="layer1"
     inkscape:label="Layer 1"
     inkscape:groupmode="layer"
     transform="translate(-48.915 -433.36)">
    <g
       id="g4994"
       transform="matrix(1.2289,0,0,1.2266,-12.188,-445.25)">
      <g
         id="g4156">
        <path
           d="m254.19 926.02c-4.7851 20.727-18.646 21.435-31.67 0.8814-25.96-9.4665-4.5432-30.782 5.0777-23.637-8.0604-19.092 21.924-38.096 20.344-0.47402 12.514-9.3789 32.18 7.5089 6.248 23.229z"
           style="fill-rule:evenodd;stroke:#000000;stroke-width:5;fill:#ffffff"
           sodipodi:nodetypes="ccccc"
           inkscape:connector-curvature="0"
           id="path3926-1-2-8-8-8" />
        <path
           d="m231.49 917.71c0 50.641-33.949 44.302-83.452 44.302s-95.816 6.3396-95.816-44.302c0-50.641 40.13-108.18 89.634-108.18 49.503 0 89.634 57.537 89.634 108.18z"
           style="fill-rule:evenodd;stroke:#000000;stroke-width:5;fill:#ffffff"
           sodipodi:nodetypes="sssss"
           inkscape:connector-curvature="0"
           id="path2985-6-5-8-4-5" />
        <ellipse
           cx="483.2"
           cy="431.19"
           ry="16.484"
           transform="matrix(1.2239,0,0,1.1754,-416.05,369.65)"
           rx="17.515"
           style="fill-rule:evenodd;stroke:#000000;stroke-width:2;fill:#ffffff"
           id="path3756-0-7-1-6-0" />
        <ellipse
           cx="483.2"
           cy="431.19"
           ry="16.484"
           transform="matrix(.52696 0 0 .52865 -78.856 649.54)"
           rx="17.515"
           style="fill-rule:evenodd;stroke:#000000;stroke-width:2;fill:#000000"
           id="path3756-7-9-2-0-9-86" />
        <ellipse
           cx="527.5"
           cy="307.04"
           ry="64.392"
           transform="translate(-348.55,476.22)"
           rx="27.817"
           style="fill-rule:evenodd;stroke:#000000;stroke-width:5;fill:#ffffff"
           id="path3812-60-80-5-3-24" />
        <path
           d="m154.13 797.01c0 24.328 12.412 58.915 23.22 58.915s25.306-30.675 25.306-55.003-14.499-33.096-25.306-33.096c-10.808 0-23.22 4.8557-23.22 29.184z"
           style="fill-rule:evenodd;fill:#ffffff"
           sodipodi:nodetypes="sssss"
           inkscape:connector-curvature="0"
           id="path3812-6-3-2-8-5-8-1-8" />
        <ellipse
           cx="527.5"
           cy="307.04"
           ry="64.392"
           transform="matrix(.68519 0 0 .808 -181.97 539.8)"
           rx="27.817"
           style="fill-rule:evenodd;fill:#ff9200;fill-opacity:1"
           id="path3812-1-6-0-9-5-6" />
        <ellipse
           cx="527.5"
           cy="307.04"
           ry="64.392"
           transform="matrix(.35185 0 0 .144 -43.681 860.6)"
           rx="27.817"
           style="fill-rule:evenodd;fill:#ff9200;fill-opacity:1"
           id="path3812-1-8-2-8-0-1-50" />
        <path
           d="m158.88 904.85 75.21-3.0908"
           inkscape:connector-curvature="0"
           style="stroke:#000000;stroke-width:1px;fill:none"
           id="path3894-4-92-0-5-9" />
        <path
           d="m157.37 914.15 71.089 20.606"
           inkscape:connector-curvature="0"
           style="stroke:#000000;stroke-width:1px;fill:none"
           id="path3896-5-82-0-5-0" />
        <path
           d="m157.39 925.97 47.393 19.575"
           inkscape:connector-curvature="0"
           style="stroke:#000000;stroke-width:1px;fill:none"
           id="path3898-8-0-7-8-0" />
        <path
           d="m142.46 914.62c-1.3622 30.983-7.6564 29.908-14.424 25.757"
           style="stroke:#000000;stroke-width:3;fill:none"
           sodipodi:nodetypes="cc"
           inkscape:connector-curvature="0"
           id="path3906-1-7-2-4-8" />
        <path
           d="m142.46 915.1c1.3622 30.983 7.6564 29.908 14.424 25.757"
           style="stroke:#000000;stroke-width:3;fill:none"
           sodipodi:nodetypes="cc"
           inkscape:connector-curvature="0"
           id="path3906-2-4-6-1-7-9" />
        <ellipse
           cx="483.2"
           cy="431.19"
           ry="16.484"
           transform="matrix(1.2239,0,0,1.1754,-484.98,369.73)"
           rx="17.515"
           style="fill-rule:evenodd;stroke:#000000;stroke-width:2;fill:#ffffff"
           id="path3756-0-7-1-6-0-3" />
        <ellipse
           cx="483.2"
           cy="431.19"
           ry="16.484"
           transform="matrix(.52696 0 0 .52865 -148.32 650.15)"
           rx="17.515"
           inkscape:transform-center-x="-2.6080471"
           style="fill-rule:evenodd;stroke:#000000;stroke-width:2;fill:#000000"
           id="path3756-7-9-2-0-9-86-4" />
        <path
           d="m125.09 904.7-75.207-3.09"
           inkscape:connector-curvature="0"
           style="stroke:#000000;stroke-width:1px;fill:none"
           id="path3894-4-92-0-5-9-4" />
        <path
           d="m126.59 914-71.089 20.61"
           inkscape:connector-curvature="0"
           style="stroke:#000000;stroke-width:1px;fill:none"
           id="path3896-5-82-0-5-0-6" />
        <path
           d="m126.58 925.82-47.392 19.57"
           inkscape:connector-curvature="0"
           style="stroke:#000000;stroke-width:1px;fill:none"
           id="path3898-8-0-7-8-0-0" />
        <ellipse
           cx="527.5"
           cy="307.04"
           ry="64.392"
           transform="translate(-425.79,476.15)"
           rx="27.817"
           style="fill-rule:evenodd;stroke:#000000;stroke-width:5;fill:#ffffff"
           id="path3812-60-80-5-3-24-6" />
        <path
           d="m126.5 797.01c0 24.328-12.412 58.915-23.22 58.915s-25.306-30.675-25.306-55.003 14.499-33.096 25.306-33.096c10.808 0 23.22 4.8557 23.22 29.184z"
           style="fill-rule:evenodd;fill:#ffffff"
           sodipodi:nodetypes="sssss"
           inkscape:connector-curvature="0"
           id="path3812-6-3-2-8-5-8-1" />
        <ellipse
           cx="527.5"
           cy="307.04"
           ry="64.392"
           transform="matrix(.68519 0 0 .808 -259.21 539.74)"
           rx="27.817"
           style="fill-rule:evenodd;fill:#ff9200;fill-opacity:1"
           id="path3812-1-6-0-9-5-6-6" />
      </g>
    </g>
  </g>
  <metadata
     id="metadata27">
    <rdf:RDF>
      <cc:Work>
        <dc:format>image/svg+xml</dc:format>
        <dc:type
           rdf:resource="http://purl.org/dc/dcmitype/StillImage" />
        <cc:license
           rdf:resource="http://creativecommons.org/licenses/publicdomain/" />
        <dc:publisher>
          <cc:Agent
             rdf:about="http://openclipart.org/">
            <dc:title>Openclipart</dc:title>
          </cc:Agent>
        </dc:publisher>
        <dc:title></dc:title>
      </cc:Work>
      <cc:License
         rdf:about="http://creativecommons.org/licenses/publicdomain/">
        <cc:permits
           rdf:resource="http://creativecommons.org/ns#Reproduction" />
        <cc:permits
           rdf:resource="http://creativecommons.org/ns#Distribution" />
        <cc:permits
           rdf:resource="http://creativecommons.org/ns#DerivativeWorks" />
      </cc:License>
    </rdf:RDF>
  </metadata>
</svg>
